#!OML:ASF H:\MichaelJackson\Top Level 1\Subject 1\Session 1\male.ASF
:FULLY-SPECIFIED
:DEGREES
667
root 1.79092 13.4517 16.5773 -125.064 58.5972 -148.704
lowerback 21.4741 3.29845 -11.6938
upperback 2.13675 1.42437 -7.30771
thorax -9.7531 1.22042 -1.97279
lowerneck -1.1848 -19.49 -15.8381
upperneck -5.77054 -27.0988 30.3485
head 5.19174 -13.3535 9.17804
rclavicle -5.725e-014 -4.45278e-014
rhumerus -42.407 13.1395 -98.8956
rradius 37.3108
rwrist 0.950102
rhand -39.1254 -21.7024
rfingers 7.12502
rthumb -12.1246 308.669
lclavicle -5.725e-014 -4.45278e-014
lhumerus -5.54673 7.19389 53.3211
lradius 64.2642
lwrist 20.8325
lhand -26.2329 6.91546
lfingers 7.12502
lthumb 0.320813 36.895
rfemur -19.8701 -17.7781 0.556681
rtibia 33.2815
rfoot 16.6844 -13.8245
rtoes -45.8258
lfemur -72.5732 18.6872 22.8974
ltibia 62.9081
lfoot -30.4979 -25.9561
ltoes -24.4233
668
root 1.74527 13.3791 16.7432 -125.022 58.9228 -148.765
lowerback 21.8222 3.40752 -11.4577
upperback 2.35793 1.59939 -7.51271
thorax -9.6866 1.29303 -2.39611
lowerneck -1.18833 -19.4247 -15.9468
upperneck -5.88611 -26.9748 30.2349
head 5.12527 -13.3028 9.18825
rclavicle -4.45278e-014 -6.36111e-014
rhumerus -42.4261 12.9895 -98.4405
rradius 37.1414
rwrist 0.190206
rhand -39.4207 -22.5801
rfingers 7.12502
rthumb -12.4093 307.808
lclavicle -4.45278e-014 -6.36111e-014
lhumerus -5.60243 7.54306 53.2467
lradius 64.6799
lwrist 20.7069
lhand -26.1855 6.52043
lfingers 7.12502
lthumb 0.366602 36.4999
rfemur -21.395 -19.5507 0.743186
rtibia 35.5766
rfoot 14.4106 -13.2507
rtoes -46.8837
lfemur -72.4868 19.1259 23.271
ltibia 62.3042
lfoot -30.0278 -25.8445
ltoes -25.1013
669
root 1.6971 13.3071 16.9072 -124.848 59.2709 -148.675
lowerback 22.1689 3.52764 -11.2017
upperback 2.5818 1.79565 -7.69425
thorax -9.61371 1.37524 -2.81201
lowerneck -1.23489 -19.3744 -16.0325
upperneck -5.99948 -26.8671 30.1152
head 5.06576 -13.2557 9.18542
rclavicle 0 2.8625e-014
rhumerus -42.4502 12.8844 -97.9698
rradius 36.9739
rwrist -0.622776
rhand -39.7324 -23.4624
rfingers 7.12502
rthumb -12.7098 306.944
lclavicle 0 2.8625e-014
lhumerus -5.71441 7.92498 53.218
lradius 65.1425
lwrist 20.704
lhand -26.0864 6.16678
lfingers 7.12502
lthumb 0.462305 36.146
rfemur -22.9444 -21.1952 0.971562
rtibia 37.8242
rfoot 12.0115 -12.8405
rtoes -47.6243
lfemur -72.3058 19.5664 23.7366
ltibia 61.6676
lfoot -29.5548 -25.6495
ltoes -25.8087
670
root 1.64655 13.236 17.0693 -124.6 59.6316 -148.492
lowerback 22.5319 3.64836 -10.9295
upperback 2.81399 1.99738 -7.85784
thorax -9.53637 1.46029 -3.22081
lowerneck -1.29389 -19.3285 -16.103
upperneck -6.1569 -26.7562 30.0269
head 4.99861 -13.2073 9.1906
rclavicle 1.08139e-013 4.92986e-014
rhumerus -42.4758 12.8258 -97.4916
rradius 36.8177
rwrist -1.46825
rhand -40.0725 -24.3208
rfingers 7.12502
rthumb -13.0377 306.107
lclavicle 1.08139e-013 4.92986e-014
lhumerus -5.87257 8.31975 53.209
lradius 65.6344
lwrist 20.8367
lhand -25.9969 5.7927
lfingers 7.12502
lthumb 0.548717 35.7717
rfemur -24.5191 -22.7321 1.23859
rtibia 40.053
rfoot 9.58801 -12.5925
rtoes -48.16
lfemur -72.0295 19.9537 24.2969
ltibia 60.9916
lfoot -29.1126 -25.3089
ltoes -26.5946
671
root 1.59371 13.1664 17.2294 -124.371 60.007 -148.323
lowerback 22.9246 3.75305 -10.6653
upperback 3.05875 2.17679 -8.01416
thorax -9.45636 1.53684 -3.61334
lowerneck -1.3455 -19.2767 -16.1586
upperneck -6.38507 -26.6251 29.9873
head 4.91227 -13.1523 9.21578
rclavicle 4.77083e-014 1.28812e-013
rhumerus -42.4878 12.8024 -97.0033
rradius 36.6672
rwrist -2.29023
rhand -40.4101 -25.1249
rfingers 7.12502
rthumb -13.3631 305.324
lclavicle 4.77083e-014 1.28812e-013
lhumerus -6.06966 8.72096 53.1969
lradius 66.1407
lwrist 21.109
lhand -25.94 5.4068
lfingers 7.12502
lthumb 0.603651 35.3857
rfemur -26.1162 -24.2058 1.50997
rtibia 42.2759
rfoot 7.20108 -12.474
rtoes -48.5452
lfemur -71.6757 20.2232 24.9243
ltibia 60.2689
lfoot -28.6978 -24.7871
ltoes -27.4434
672
root 1.53885 13.0988 17.3873 -124.262 60.4074 -148.291
lowerback 23.3443 3.82604 -10.4453
upperback 3.31502 2.30597 -8.17706
thorax -9.37387 1.59381 -3.97637
lowerneck -1.3619 -19.2052 -16.1903
upperneck -6.69395 -26.4536 29.9888
head 4.79235 -13.0841 9.26575
rclavicle 7.95139e-014 -1.81292e-013
rhumerus -42.4897 12.8044 -96.5103
rradius 36.5287
rwrist -3.03265
rhand -40.7326 -25.8666
rfingers 7.12502
rthumb -13.674 304.603
lclavicle 7.95139e-014 -1.81292e-013
lhumerus -6.29481 9.11545 53.1517
lradius 66.6282
lwrist 21.5149
lhand -25.9326 5.01097
lfingers 7.12502
lthumb 0.610852 34.9898
rfemur -27.73 -25.64 1.73874
rtibia 44.4853
rfoot 4.89174 -12.4428
rtoes -48.8102
lfemur -71.2794 20.3282 25.5626
ltibia 59.4938
lfoot -28.3132 -24.0466
ltoes -28.3635
673
root 1.48262 13.0343 17.5432 -124.304 60.8085 -148.439
lowerback 23.7788 3.85992 -10.2607
upperback 3.58532 2.38012 -8.33807
thorax -9.28068 1.62841 -4.30179
lowerneck -1.35322 -19.1206 -16.2189
upperneck -7.05395 -26.2566 30.0168
head 4.65265 -13.0077 9.33319
rclavicle -4.77083e-014 -6.04305e-014
rhumerus -42.4751 12.8037 -95.9895
rradius 36.4074
rwrist -3.64902
rhand -41.0157 -26.5631
rfingers 7.12502
rthumb -13.9468 303.925
lclavicle -4.77083e-014 -6.04305e-014
lhumerus -6.52157 9.50466 53.0922
lradius 67.0535
lwrist 21.9912
lhand -25.9869 4.58913
lfingers 7.12502
lthumb 0.55841 34.5681
rfemur -29.3551 -27.0346 1.93975
rtibia 46.6614
rfoot 2.69467 -12.4716
rtoes -48.9708
lfemur -70.8732 20.2662 26.1969
ltibia 58.6617
lfoot -27.9494 -23.1047
ltoes -29.3217
674
root 1.42543 12.9732 17.6971 -124.52 61.2288 -148.809
lowerback 24.211 3.86626 -10.1228
upperback 3.86896 2.41394 -8.50134
thorax -9.16974 1.64784 -4.59099
lowerneck -1.31293 -19.0336 -16.2567
upperneck -7.45206 -26.0519 30.0452
head 4.49655 -12.9314 9.40806
rclavicle -6.36111e-015 3.81667e-014
rhumerus -42.4521 12.7672 -95.4156
rradius 36.3245
rwrist -4.1462
rhand -41.2573 -27.2156
rfingers 7.12502
rthumb -14.1796 303.288
lclavicle -6.36111e-015 3.81667e-014
lhumerus -6.70142 9.87063 53.0573
lradius 67.375
lwrist 22.4818
lhand -26.0976 4.17177
lfingers 7.12502
lthumb 0.451435 34.151
rfemur -30.9875 -28.3612 2.08613
rtibia 48.7776
rfoot 0.614201 -12.5608
rtoes -49.0564
lfemur -70.4797 20.0561 26.7808
ltibia 57.7752
lfoot -27.5886 -21.9833
ltoes -30.2761
675
root 1.36791 12.9154 17.8493 -124.878 61.6669 -149.372
lowerback 24.6154 3.85148 -10.0426
upperback 4.16072 2.41553 -8.65618
thorax -9.03525 1.65562 -4.82575
lowerneck -1.24545 -18.945 -16.3008
upperneck -7.85747 -25.8446 30.0373
head 4.32779 -12.856 9.47678
rclavicle -7.63333e-014 4.77083e-014
rhumerus -42.4466 12.7162 -94.7909
rradius 36.3053
rwrist -4.56894
rhand -41.4641 -27.8745
rfingers 7.12502
rthumb -14.3788 302.644
lclavicle -7.63333e-014 4.77083e-014
lhumerus -6.83367 10.2244 53.0615
lradius 67.5648
lwrist 22.9129
lhand -26.2806 3.74376
lfingers 7.12502
lthumb 0.274711 33.7233
rfemur -32.612 -29.5794 2.18453
rtibia 50.8094
rfoot -1.35762 -12.7346
rtoes -49.0819
lfemur -70.1067 19.7485 27.3053
ltibia 56.838
lfoot -27.1958 -20.7598
ltoes -31.1786
676
root 1.31045 12.8602 17.9997 -125.303 62.1116 -150.049
lowerback 24.9694 3.825 -10.0002
upperback 4.45604 2.40354 -8.79405
thorax -8.87104 1.65892 -5.01121
lowerneck -1.18665 -18.8633 -16.3254
upperneck -8.21048 -25.6527 29.939
head 4.16005 -12.7849 9.5107
rclavicle -3.18055e-014 -9.70069e-014
rhumerus -42.481 12.6826 -94.1352
rradius 36.381
rwrist -5.01734
rhand -41.6617 -28.5763
rfingers 7.12502
rthumb -14.5692 301.955
lclavicle -3.18055e-014 -9.70069e-014
lhumerus -6.90759 10.5697 53.117
lradius 67.6106
lwrist 23.2505
lhand -26.523 3.35294
lfingers 7.12502
lthumb 0.0405779 33.3327
rfemur -34.2186 -30.6456 2.26342
rtibia 52.7415
rfoot -3.2524 -13.0032
rtoes -49.0537
lfemur -69.7505 19.4119 27.7827
ltibia 55.8577
lfoot -26.7593 -19.5011
ltoes -31.9977
677
root 1.2532 12.8073 18.1486 -125.722 62.5658 -150.753
lowerback 25.2643 3.80046 -9.98358
upperback 4.74925 2.39777 -8.90844
thorax -8.67937 1.66579 -5.15239
lowerneck -1.14993 -18.7919 -16.3171
upperneck -8.4901 -25.4818 29.7161
head 3.99505 -12.7189 9.49483
rclavicle 1.90833e-014 1.59028e-014
rhumerus -42.5813 12.7061 -93.4722
rradius 36.5763
rwrist -5.59389
rhand -41.8888 -29.348
rfingers 7.12502
rthumb -14.788 301.2
lclavicle 1.90833e-014 1.59028e-014
lhumerus -6.92574 10.9155 53.2404
lradius 67.5222
lwrist 23.4672
lhand -26.8258 3.01061
lfingers 7.12502
lthumb -0.251883 32.9902
rfemur -35.8089 -31.5304 2.33886
rtibia 54.5772
rfoot -5.08128 -13.3429
rtoes -48.9902
lfemur -69.3891 19.1043 28.2259
ltibia 54.8414
lfoot -26.2742 -18.2757
ltoes -32.7165
678
root 1.19588 12.756 18.295 -126.081 63.025 -151.413
lowerback 25.5117 3.77647 -9.95974
upperback 5.03584 2.40104 -9.00135
thorax -8.47083 1.67617 -5.27228
lowerneck -1.15867 -18.7274 -16.2758
upperneck -8.66175 -25.3321 29.3697
head 3.84729 -12.6545 9.42616
rclavicle 4.45278e-014 1.74931e-014
rhumerus -42.764 12.8396 -92.8399
rradius 36.9027
rwrist -6.37196
rhand -42.1668 -30.2082
rfingers 7.12502
rthumb -15.0558 300.359
lclavicle 4.45278e-014 1.74931e-014
lhumerus -6.90877 11.2684 53.4189
lradius 67.3265
lwrist 23.5972
lhand -27.189 2.70451
lfingers 7.12502
lthumb -0.602649 32.6834
rfemur -37.3898 -32.2412 2.42662
rtibia 56.3354
rfoot -6.8181 -13.71
rtoes -48.8997
lfemur -69.0024 18.8534 28.6571
ltibia 53.7982
lfoot -25.7416 -17.1224
ltoes -33.3346
679
root 1.13831 12.7058 18.4385 -126.324 63.4854 -151.949
lowerback 25.7249 3.75675 -9.88883
upperback 5.3152 2.42527 -9.07895
thorax -8.25177 1.69455 -5.40545
lowerneck -1.22952 -18.6702 -16.2372
upperneck -8.69098 -25.2132 28.9652
head 3.74832 -12.5944 9.32313
rclavicle 6.67916e-014 3.97569e-014
rhumerus -43.0305 13.0896 -92.2645
rradius 37.357
rwrist -7.3437
rhand -42.4922 -31.1581
rfingers 7.12502
rthumb -15.3692 299.433
lclavicle 6.67916e-014 3.97569e-014
lhumerus -6.86406 11.6192 53.636
lradius 67.0649
lwrist 23.6864
lhand -27.5915 2.47651
lfingers 7.12502
lthumb -0.991421 32.454
rfemur -38.9854 -32.8069 2.55385
rtibia 58.0479
rfoot -8.42577 -14.0408
rtoes -48.8019
lfemur -68.5724 18.6934 29.0907
ltibia 52.7385
lfoot -25.1666 -16.0887
ltoes -33.8558
680
root 1.08021 12.6568 18.5781 -126.443 63.9554 -152.339
lowerback 25.9227 3.73344 -9.7549
upperback 5.58572 2.46076 -9.14933
thorax -8.03315 1.71649 -5.56887
lowerneck -1.36847 -18.6093 -16.1925
upperneck -8.59268 -25.1034 28.5008
head 3.68888 -12.5286 9.18894
rclavicle 9.54166e-015 -2.22639e-014
rhumerus -43.3811 13.4819 -91.7667
rradius 37.9258
rwrist -8.44481
rhand -42.8518 -32.1565
rfingers 7.12502
rthumb -15.7156 298.462
lclavicle 9.54166e-015 -2.22639e-014
lhumerus -6.82811 11.9737 53.8615
lradius 66.7827
lwrist 23.7928
lhand -28.0441 2.307
lfingers 7.12502
lthumb -1.4285 32.282
rfemur -40.6243 -33.2783 2.72671
rtibia 59.7471
rfoot -9.86925 -14.2611
rtoes -48.7128
lfemur -68.0856 18.6151 29.5315
ltibia 51.6753
lfoot -24.5534 -15.1751
ltoes -34.2868
681
root 1.02124 12.6089 18.7132 -126.429 64.4337 -152.562
lowerback 26.1179 3.69838 -9.53579
upperback 5.85087 2.50135 -9.22005
thorax -7.81664 1.73929 -5.7827
lowerneck -1.56374 -18.5352 -16.1587
upperneck -8.40876 -24.9834 28.0302
head 3.66286 -12.4505 9.04795
rclavicle 3.49861e-014 -1.90833e-014
rhumerus -43.8008 14.0088 -91.3494
rradius 38.594
rwrist -9.56287
rhand -43.2021 -33.1485
rfingers 7.12502
rthumb -16.053 297.497
lclavicle 3.49861e-014 -1.90833e-014
lhumerus -6.82201 12.329 54.0694
lradius 66.5225
lwrist 23.9694
lhand -28.5465 2.20434
lfingers 7.12502
lthumb -1.91368 32.1755
rfemur -42.3353 -33.7055 2.96497
rtibia 61.4568
rfoot -11.1123 -14.3178
rtoes -48.6419
lfemur -67.5432 18.6119 29.9829
ltibia 50.6222
lfoot -23.9046 -14.3838
ltoes -34.6417
